name rise49.5252peak65.1548fall88.8305.mot
datacolumns 19
datarows 20
range 9.85495900000000 9.88662000000000
endheader
time	ground_force1_vx	ground_force1_vy	ground_force1_vz	ground_force1_px	ground_force1_py	ground_force1_pz	ground_force2_vx	ground_force2_vy	ground_force2_vz	ground_force2_px	ground_force2_py	ground_force2_pz	ground_torque1_x	ground_torque1_y	ground_torque1_z	ground_torque2_x	ground_torque2_y	ground_torque2_z	
9.85495900000000	-11.21065800000000	42.03402100000000	-12.43359800000000	0.38112400000000	0.00000000000000	0.10235700000000	-49.87839000000000	766.09734500000002	-50.36847800000000	0.20452900000000	0.00000000000000	-0.07046400000000	0.00000000000000	-8.98760800000000	0.00000000000000	0.00000000000000	-26.54570800000000	0.00000000000000	
9.85662400000000	-12.29736700000000	49.52532500000000	-13.97637900000000	0.38561800000000	0.00000000000000	0.10376100000000	-50.27778600000000	762.10528999999997	-49.78010200000000	0.20385300000000	0.00000000000000	-0.07033700000000	0.00000000000000	-10.20202500000000	0.00000000000000	0.00000000000000	-26.30741700000000	0.00000000000000	
9.85828800000000	-13.17481500000000	57.18077100000000	-15.37597800000000	0.38943000000000	0.00000000000000	0.10502800000000	-50.68255700000000	758.01477299999999	-49.17158400000000	0.20315800000000	0.00000000000000	-0.07020800000000	0.00000000000000	-11.32980600000000	0.00000000000000	0.00000000000000	-26.06512100000000	0.00000000000000	
9.85995800000000	-13.81339200000000	64.90795900000001	-16.59932900000000	0.39269100000000	0.00000000000000	0.10618100000000	-51.09244900000000	753.82492400000001	-48.54306100000000	0.20244300000000	0.00000000000000	-0.07007600000000	0.00000000000000	-12.34576600000000	0.00000000000000	0.00000000000000	-25.81890300000000	0.00000000000000	
9.86162700000000	-14.19597500000000	72.63558500000001	-17.62448000000000	0.39550100000000	0.00000000000000	0.10723600000000	-51.50711500000000	749.53471999999999	-47.89469200000000	0.20170800000000	0.00000000000000	-0.06994100000000	0.00000000000000	-13.23272200000000	0.00000000000000	0.00000000000000	-25.56884400000000	0.00000000000000	
9.86328900000000	-14.31770700000000	80.31585900000000	-18.44074400000000	0.39794200000000	0.00000000000000	0.10820900000000	-51.92611200000000	745.14299200000005	-47.22665500000000	0.20095100000000	0.00000000000000	-0.06980300000000	0.00000000000000	-13.98166600000000	0.00000000000000	0.00000000000000	-25.31501500000000	0.00000000000000	
9.86495400000000	-14.18481600000000	87.92458400000000	-19.04790100000000	0.40007700000000	0.00000000000000	0.10911100000000	-52.34890000000000	740.64842899999996	-46.53915500000000	0.20017300000000	0.00000000000000	-0.06966300000000	0.00000000000000	-14.59123800000000	0.00000000000000	0.00000000000000	-25.05748300000000	0.00000000000000	
9.86662800000000	-13.81272100000000	95.45926700000000	-19.45468500000000	0.40195900000000	0.00000000000000	0.10994900000000	-52.77484300000000	736.04958599999998	-45.83242000000000	0.19937400000000	0.00000000000000	-0.06952000000000	0.00000000000000	-15.06666200000000	0.00000000000000	0.00000000000000	-24.79630700000000	0.00000000000000	
9.86829400000000	-13.22370500000000	102.93576800000000	-19.67679500000000	0.40363100000000	0.00000000000000	0.11073300000000	-53.20320500000000	731.34489299999996	-45.10670700000000	0.19855400000000	0.00000000000000	-0.06937400000000	0.00000000000000	-15.41832600000000	0.00000000000000	0.00000000000000	-24.53154100000000	0.00000000000000	
9.86995400000000	-12.44443700000000	110.38401300000000	-19.73468600000000	0.40512700000000	0.00000000000000	0.11146900000000	-53.63315600000000	726.53266199999996	-44.36230200000000	0.19771200000000	0.00000000000000	-0.06922500000000	0.00000000000000	-15.66019200000000	0.00000000000000	0.00000000000000	-24.26323600000000	0.00000000000000	
9.87162500000000	-11.50355000000000	117.84329400000000	-19.65135600000000	0.40647800000000	0.00000000000000	0.11216000000000	-54.06376700000000	721.61110499999995	-43.59952100000000	0.19684900000000	0.00000000000000	-0.06907300000000	0.00000000000000	-15.80819100000000	0.00000000000000	0.00000000000000	-23.99143200000000	0.00000000000000	
9.87329400000000	-10.42948000000000	125.35760500000001	-19.45030900000000	0.40770700000000	0.00000000000000	0.11281300000000	-54.49401200000000	716.57834000000003	-42.81871400000000	0.19596700000000	0.00000000000000	-0.06891900000000	0.00000000000000	-15.87874500000000	0.00000000000000	0.00000000000000	-23.71617000000000	0.00000000000000	
9.87495500000000	-9.24868900000000	132.97138899999999	-19.15383200000000	0.40883500000000	0.00000000000000	0.11343000000000	-54.92277500000000	711.43240700000001	-42.02026400000000	0.19506400000000	0.00000000000000	-0.06876200000000	0.00000000000000	-15.88750100000000	0.00000000000000	0.00000000000000	-23.43748100000000	0.00000000000000	
9.87662700000000	-7.98433700000000	140.72594799999999	-18.78165900000000	0.40987900000000	0.00000000000000	0.11401600000000	-55.34884400000000	706.17128800000000	-41.20458700000000	0.19414200000000	0.00000000000000	-0.06860200000000	0.00000000000000	-15.84835100000000	0.00000000000000	0.00000000000000	-23.15539500000000	0.00000000000000	
9.87829300000000	-6.65544200000000	148.65668600000001	-18.35006800000000	0.41085300000000	0.00000000000000	0.11457200000000	-55.77092300000000	700.79291799999999	-40.37213900000000	0.19320200000000	0.00000000000000	-0.06843800000000	0.00000000000000	-15.77275600000000	0.00000000000000	0.00000000000000	-22.86993400000000	0.00000000000000	
9.87995300000000	-5.27649200000000	156.79124600000000	-17.87139200000000	0.41177000000000	0.00000000000000	0.11510100000000	-56.18762600000000	695.29520700000000	-39.52341200000000	0.19224600000000	0.00000000000000	-0.06827200000000	0.00000000000000	-15.66937400000000	0.00000000000000	0.00000000000000	-22.58111800000000	0.00000000000000	
9.88162800000000	-3.85746800000000	165.14851600000000	-17.35392200000000	0.41264000000000	0.00000000000000	0.11560500000000	-56.59748700000000	689.67605800000001	-38.65893300000000	0.19127300000000	0.00000000000000	-0.06810300000000	0.00000000000000	-15.54396400000000	0.00000000000000	0.00000000000000	-22.28896200000000	0.00000000000000	
9.88329500000000	-2.40419600000000	173.73843199999999	-16.80212200000000	0.41347200000000	0.00000000000000	0.11608600000000	-56.99896100000000	683.93338700000004	-37.77927300000000	0.19028500000000	0.00000000000000	-0.06793100000000	0.00000000000000	-15.39952300000000	0.00000000000000	0.00000000000000	-21.99347600000000	0.00000000000000	
9.88496600000000	-0.91894500000000	182.56243499999999	-16.21710100000000	0.41427200000000	0.00000000000000	0.11654500000000	-57.39043100000000	678.06514100000004	-36.88503800000000	0.18928500000000	0.00000000000000	-0.06775500000000	0.00000000000000	-15.23660800000000	0.00000000000000	0.00000000000000	-21.69466700000000	0.00000000000000	
9.88662000000000	0.59882400000000	191.61443800000001	-15.59723900000000	0.41504800000000	0.00000000000000	0.11698400000000	-57.77021100000000	672.06932099999995	-35.97687500000000	0.18827200000000	0.00000000000000	-0.06757600000000	0.00000000000000	-15.05377200000000	0.00000000000000	0.00000000000000	-21.39253700000000	0.00000000000000	
